<svg width="500" height="500" viewBox="0 0 500 500" fill="none" xmlns="http://www.w3.org/2000/svg">
<g clip-path="url(#clip0_2014_42)">
<path d="M139.259 396.817C148.823 387.253 148.662 371.585 138.899 361.822C129.136 352.059 113.468 351.897 103.904 361.461L17.3171 448.048C7.753 457.612 7.91434 473.28 17.6774 483.043C27.4406 492.806 43.1083 492.967 52.6724 483.403L139.259 396.817Z" fill="url(#paint0_linear_2014_42)"/>
<path d="M277.077 418.846C385.282 418.846 473 331.128 473 222.923C473 114.718 385.282 27 277.077 27C168.872 27 81.1538 114.718 81.1538 222.923C81.1538 331.128 168.872 418.846 277.077 418.846Z" stroke="url(#paint1_linear_2014_42)" stroke-width="40"/>
<path d="M195 177V244C195 261.77 201.585 278.811 213.306 291.376C225.027 303.941 240.924 311 257.5 311C274.076 311 289.973 303.941 301.694 291.376C313.415 278.811 320 261.77 320 244V177" stroke="url(#paint2_linear_2014_42)" stroke-width="40" stroke-linecap="round"/>
<path d="M162.838 169.756V201.594C184.063 212.206 205.288 212.206 226.513 201.594V169.756H162.838Z" fill="#1E3A8A"/>
<path d="M194.675 122L258.35 153.838L194.675 185.675L131 153.838L194.675 122Z" fill="#2563EB" stroke="#1E3A8A" stroke-width="2.6" stroke-linejoin="round"/>
<path d="M319.76 170.45H409.558M319.76 250.043H386.088" stroke="url(#paint3_linear_2014_42)" stroke-width="40" stroke-linecap="round"/>
</g>
<defs>
<linearGradient id="paint0_linear_2014_42" x1="121.221" y1="344.144" x2="167.382" y2="428.318" gradientUnits="userSpaceOnUse">
<stop stop-color="#2563EB"/>
<stop offset="1" stop-color="#1E3A8A"/>
</linearGradient>
<linearGradient id="paint1_linear_2014_42" x1="81.1538" y1="27" x2="473" y2="418.846" gradientUnits="userSpaceOnUse">
<stop stop-color="#2563EB"/>
<stop offset="1" stop-color="#1E3A8A"/>
</linearGradient>
<linearGradient id="paint2_linear_2014_42" x1="195" y1="177" x2="328.677" y2="301.698" gradientUnits="userSpaceOnUse">
<stop offset="1" stop-color="#3B82F6"/>
</linearGradient>
<linearGradient id="paint3_linear_2014_42" x1="319.76" y1="170.45" x2="398.778" y2="259.598" gradientUnits="userSpaceOnUse">
<stop offset="1" stop-color="#3B82F6"/>
</linearGradient>
<clipPath id="clip0_2014_42">
<rect width="500" height="500" fill="white"/>
</clipPath>
</defs>
</svg>
